<svg width="31" height="41" viewBox="0 0 31 41" fill="none" xmlns="http://www.w3.org/2000/svg">
<path d="M10.9511 0C12.8583 0 14.4891 1.65361 14.4891 3.5875V11.5834C15.8654 10.2749 18.5067 10.1143 20.2164 12.0878C22.0593 10.9436 24.4964 11.9159 25.247 13.4051C29.2141 12.6865 31 15.1625 31 19.2188C31 19.4386 30.9836 20.2819 30.9843 20.5C30.9978 25.4625 28.4764 26.6575 27.8911 30.4081C27.7452 31.3429 26.9312 32.0312 25.9775 32.0312H12.1304L12.1304 32.0311C10.6477 32.0302 9.23308 31.1817 8.59079 29.7517C7.5418 27.4386 4.632 22.1113 2.34857 21.1406C0.879706 20.5163 0.000646171 19.4282 3.37871e-07 17.9375C-0.00112987 15.1971 2.83343 13.3128 5.40143 14.4045C6.07624 14.6915 6.74718 15.0701 7.41304 15.5379V3.5875C7.41304 1.70967 9.07146 0 10.9511 0ZM10.9792 33.3125H26.4792C27.5492 33.3125 28.4167 34.1729 28.4167 35.2344V39.0781C28.4167 40.1396 27.5492 41 26.4792 41H10.9792C9.9091 41 9.04167 40.1396 9.04167 39.0781V35.2344C9.04167 34.1729 9.9091 33.3125 10.9792 33.3125ZM24.5417 35.5547C23.6499 35.5547 22.9271 36.2717 22.9271 37.1562C22.9271 38.0408 23.6499 38.7578 24.5417 38.7578C25.4334 38.7578 26.1562 38.0408 26.1562 37.1562C26.1562 36.2717 25.4334 35.5547 24.5417 35.5547Z" fill="#5B6A00"/>
</svg>
