<svg width="45" height="36" viewBox="0 0 45 36" fill="none" xmlns="http://www.w3.org/2000/svg">
<path d="M0 15.75V34.875C0 35.4966 0.503438 36 1.125 36H6.75V13.5H2.25C1.00758 13.5 0 14.5076 0 15.75ZM25.3125 12.375H23.625V9.56251C23.625 9.25172 23.3733 9.00001 23.0625 9.00001H21.9375C21.6267 9.00001 21.375 9.25172 21.375 9.56251V14.0625C21.375 14.3733 21.6267 14.625 21.9375 14.625H25.3125C25.6233 14.625 25.875 14.3733 25.875 14.0625V12.9375C25.875 12.6267 25.6233 12.375 25.3125 12.375ZM34.998 7.87782L23.748 0.377584C23.3784 0.131372 22.9442 0 22.5 0C22.0558 0 21.6216 0.131372 21.252 0.377584L10.002 7.87782C9.69381 8.08325 9.44114 8.36157 9.26635 8.68808C9.09157 9.01459 9.00008 9.37919 9 9.74954V36H18V25.875C18 25.2534 18.5034 24.75 19.125 24.75H25.875C26.4966 24.75 27 25.2534 27 25.875V36H36V9.75024C36 8.9979 35.6238 8.29477 34.998 7.87782ZM22.5 18C19.3936 18 16.875 15.4814 16.875 12.375C16.875 9.2686 19.3936 6.75001 22.5 6.75001C25.6064 6.75001 28.125 9.2686 28.125 12.375C28.125 15.4814 25.6064 18 22.5 18ZM42.75 13.5H38.25V36H43.875C44.4966 36 45 35.4966 45 34.875V15.75C45 14.5076 43.9924 13.5 42.75 13.5Z" fill="#5B6A00"/>
</svg>
